<svg xmlns="http://www.w3.org/2000/svg" viewBox="0 0 500 500"><g id="freepik--background-complete--inject-28"><path d="M457.09,400.79s-75.57-69.56-122.43-69.56c-56.28,0-111,31-131.7,41.24-54.49,26.88-160,28.32-160,28.32Z" style="fill:#dbdbdb"></path><path d="M42.91,400.79s42.91-40.47,91.38-40.47c33.84,0,82.4,8.39,128.13,22.12,17.42,5.23,108.07,18.35,108.07,18.35Z" style="fill:#c7c7c7"></path><path d="M263.45,181.4c4.77,0,123.93-.83,157.58-.83,2.36,0-.62-4.07-1.92-4.35-4.14-.91-8.45-1-12.65-1.39a41.18,41.18,0,0,1-12.06-3c-3.31-1.39-6.62-3-10.21-3.57-6.93-1.09-13,2.67-19.52,4.33a14.7,14.7,0,0,1-11.82-1.62c-3-1.8-5.74-4-8.88-5.55A48.75,48.75,0,0,0,305,163.6a45.56,45.56,0,0,0-8.51,4.36c-3.18,2.09-5.92,4.75-9.1,6.81-7.06,4.57-15.79,3.08-23.48,5.7C263.51,180.61,263,181.4,263.45,181.4Z" style="fill:#ebebeb"></path><path d="M259.74,115.23c6.32,0,112.55.7,119.22.48.48,0,.74-.72.27-.95-4.21-2.09-9-1.67-13.36-3.14-2.57-.87-4.15-2.55-5.94-4.48a12.28,12.28,0,0,0-5.53-3.61,11.71,11.71,0,0,0-6-.19c-2.15.52-4,1.75-6.08,2.53-5.1,1.92-10.06.09-13.71-3.68-3-3.12-6-6-10-7.73a13.35,13.35,0,0,0-10.64-.15c-3.9,1.77-6.57,5.32-10.23,7.45-4.34,2.54-9.53,1.94-14.32,2.71s-8.47,4.8-12.68,7.12A8.91,8.91,0,0,1,266.1,113c-.94,0-1.86-.28-2.79-.39-1.44-.18-2.82-.14-3.79,1.06C259.28,114,259.33,115.23,259.74,115.23Z" style="fill:#ebebeb"></path><path d="M50.27,277.52c6.31,0,112.54.69,119.22.48.48,0,.74-.72.26-.95-4.21-2.09-9-1.67-13.36-3.14-2.57-.87-4.15-2.55-5.94-4.48a12.3,12.3,0,0,0-5.52-3.61,11.71,11.71,0,0,0-6-.19c-2.16.51-4,1.75-6.08,2.53-5.11,1.92-10.07.09-13.71-3.69-3-3.11-6-6-10.05-7.72a13.31,13.31,0,0,0-10.64-.15c-3.89,1.77-6.57,5.32-10.23,7.45-4.34,2.54-9.53,1.94-14.32,2.7s-8.47,4.81-12.67,7.13a9.06,9.06,0,0,1-4.58,1.42c-.94,0-1.86-.28-2.79-.4-1.45-.17-2.82-.13-3.8,1.07C49.81,276.27,49.86,277.52,50.27,277.52Z" style="fill:#ebebeb"></path><path d="M37.58,139.88c4.61,0,82.17.51,87,.36.35,0,.54-.53.19-.7-3.07-1.52-6.56-1.22-9.75-2.29a10.36,10.36,0,0,1-4.33-3.27,9,9,0,0,0-4-2.64,8.6,8.6,0,0,0-4.39-.14,38.3,38.3,0,0,0-4.45,1.85c-3.72,1.4-7.34.07-10-2.69-2.2-2.27-4.35-4.42-7.34-5.64a9.77,9.77,0,0,0-7.77-.11c-2.84,1.29-4.79,3.88-7.46,5.44-3.17,1.85-7,1.42-10.46,2s-6.18,3.5-9.25,5.2a6.56,6.56,0,0,1-3.35,1,19.81,19.81,0,0,1-2-.28,2.79,2.79,0,0,0-2.77.78C37.24,139,37.28,139.88,37.58,139.88Z" style="fill:#ebebeb"></path><path d="M162,203.91c4.61,0,82.17.51,87,.35.35,0,.54-.53.19-.7-3.07-1.52-6.56-1.21-9.75-2.29a10.28,10.28,0,0,1-4.33-3.27,9,9,0,0,0-4-2.63,8.39,8.39,0,0,0-4.39-.14,36.57,36.57,0,0,0-4.45,1.84c-3.72,1.41-7.34.07-10-2.69-2.2-2.27-4.35-4.41-7.34-5.64a9.76,9.76,0,0,0-7.77-.1c-2.84,1.29-4.79,3.88-7.46,5.44-3.17,1.85-7,1.41-10.46,2s-6.18,3.5-9.25,5.2a6.57,6.57,0,0,1-3.35,1c-.68,0-1.36-.21-2-.29a2.79,2.79,0,0,0-2.77.78C161.67,203,161.71,203.91,162,203.91Z" style="fill:#ebebeb"></path><path d="M375.27,220.32c4.61,0,82.17.51,87,.35.35,0,.54-.52.19-.69-3.07-1.53-6.56-1.22-9.75-2.3a10.28,10.28,0,0,1-4.33-3.27,9,9,0,0,0-4-2.63,8.49,8.49,0,0,0-4.39-.14,40.07,40.07,0,0,0-4.45,1.84c-3.72,1.41-7.34.07-10-2.68-2.2-2.28-4.35-4.42-7.34-5.64a9.72,9.72,0,0,0-7.77-.11c-2.84,1.29-4.79,3.88-7.46,5.44-3.17,1.85-7,1.41-10.46,2s-6.18,3.51-9.25,5.2a6.57,6.57,0,0,1-3.35,1,19.84,19.84,0,0,1-2-.29,2.79,2.79,0,0,0-2.77.78C374.93,219.41,375,220.32,375.27,220.32Z" style="fill:#ebebeb"></path></g><g id="freepik--Floor--inject-28"><path d="M128.85,473.4c106.05-.61,225-.62,331,0-106,.62-225,.61-331,0Z" style="fill:#263238"></path><path d="M55.33,459.71c60.12-.65,127.57-.66,187.69,0-60.12.66-127.57.65-187.69,0Z" style="fill:#263238"></path><path d="M40.1,400.79c134.47-.61,285.33-.62,419.8,0-134.47.62-285.33.61-419.8,0Z" style="fill:#263238"></path></g><g id="freepik--Stars--inject-28"><polygon points="174.65 231.39 179.12 232.21 180.12 236.92 181.12 232.21 185.59 231.38 181.14 230.3 180.12 225.85 179.1 230.3 174.65 231.39" style="fill:#FF0055"></polygon><polygon points="447.95 110.57 450.45 111.04 451.01 113.67 451.57 111.04 454.06 110.57 451.58 109.97 451.01 107.48 450.44 109.97 447.95 110.57" style="fill:#FF0055"></polygon><polygon points="70.77 167.21 73.27 167.67 73.83 170.3 74.39 167.67 76.89 167.2 74.4 166.6 73.83 164.11 73.26 166.6 70.77 167.21" style="fill:#FF0055"></polygon><polygon points="53.03 259.24 55.53 259.7 56.09 262.33 56.65 259.7 59.14 259.23 56.66 258.63 56.09 256.14 55.52 258.63 53.03 259.24" style="fill:#FF0055"></polygon><polygon points="425.76 177.27 428.25 177.73 428.81 180.36 429.37 177.73 431.87 177.26 429.38 176.66 428.81 174.17 428.24 176.66 425.76 177.27" style="fill:#FF0055"></polygon><polygon points="415.42 292.71 417.91 293.18 418.47 295.81 419.03 293.18 421.53 292.71 419.04 292.1 418.47 289.62 417.9 292.1 415.42 292.71" style="fill:#FF0055"></polygon><polygon points="169.53 64.81 172.02 65.27 172.58 67.9 173.14 65.27 175.64 64.81 173.15 64.2 172.58 61.71 172.01 64.2 169.53 64.81" style="fill:#FF0055"></polygon><polygon points="310.45 250.39 312.94 250.85 313.5 253.49 314.06 250.85 316.56 250.39 314.07 249.78 313.5 247.29 312.93 249.78 310.45 250.39" style="fill:#FF0055"></polygon><path d="M296.59,257.79a.72.72,0,0,1,0,1.44A.72.72,0,0,1,296.59,257.79Z" style="fill:#FF0055"></path><path d="M91.92,56a.52.52,0,0,1,0,1A.52.52,0,0,1,91.92,56Z" style="fill:#FF0055"></path><path d="M317.86,262.54a.51.51,0,0,1,0,1A.51.51,0,0,1,317.86,262.54Z" style="fill:#FF0055"></path><path d="M338.75,97.36a.51.51,0,0,1,0,1A.51.51,0,0,1,338.75,97.36Z" style="fill:#FF0055"></path><path d="M254.19,256.31a.51.51,0,0,1,0,1A.51.51,0,0,1,254.19,256.31Z" style="fill:#FF0055"></path><path d="M342.09,211.32a1.39,1.39,0,0,1,0,2.77A1.39,1.39,0,0,1,342.09,211.32Z" style="fill:#FF0055"></path><polygon points="191.7 93.77 196.17 94.6 197.17 99.31 198.17 94.6 202.64 93.77 198.19 92.68 197.17 88.23 196.15 92.68 191.7 93.77" style="fill:#FF0055"></polygon><polygon points="248.08 30.36 250.58 30.82 251.14 33.45 251.69 30.82 254.19 30.35 251.71 29.75 251.14 27.26 250.57 29.75 248.08 30.36" style="fill:#FF0055"></polygon><path d="M66.68,97.94a.72.72,0,0,1,0,1.44A.72.72,0,0,1,66.68,97.94Z" style="fill:#FF0055"></path><path d="M95.52,158.63a.73.73,0,0,1,0,1.45A.73.73,0,0,1,95.52,158.63Z" style="fill:#FF0055"></path><path d="M46.64,54.54a.73.73,0,0,1,0,1.45A.73.73,0,0,1,46.64,54.54Z" style="fill:#FF0055"></path><path d="M124.17,255.43a.51.51,0,0,1,0,1A.51.51,0,0,1,124.17,255.43Z" style="fill:#FF0055"></path><path d="M378.27,86.76a.52.52,0,0,1,0,1A.52.52,0,0,1,378.27,86.76Z" style="fill:#FF0055"></path><path d="M200.24,77.29a.52.52,0,0,1,0,1A.52.52,0,0,1,200.24,77.29Z" style="fill:#FF0055"></path><path d="M245.75,55.4a.52.52,0,0,1,0,1A.52.52,0,0,1,245.75,55.4Z" style="fill:#FF0055"></path><path d="M215,237.23a1.39,1.39,0,0,1,0,2.78A1.39,1.39,0,0,1,215,237.23Z" style="fill:#FF0055"></path><path d="M437.84,132.37a1.39,1.39,0,0,1,0,2.78A1.39,1.39,0,0,1,437.84,132.37Z" style="fill:#FF0055"></path><path d="M206.76,161.37a1.39,1.39,0,0,1,0,2.78A1.39,1.39,0,0,1,206.76,161.37Z" style="fill:#FF0055"></path><path d="M151.9,99.45a1.39,1.39,0,0,1,0,2.77A1.39,1.39,0,0,1,151.9,99.45Z" style="fill:#FF0055"></path><polygon points="126.95 140.27 129.45 140.73 130 143.36 130.56 140.73 133.06 140.27 130.57 139.66 130 137.17 129.44 139.66 126.95 140.27" style="fill:#FF0055"></polygon><polygon points="340.63 90.92 343.13 91.38 343.69 94.01 344.25 91.38 346.75 90.92 344.26 90.31 343.69 87.82 343.12 90.31 340.63 90.92" style="fill:#FF0055"></polygon><path d="M376.28,75a.73.73,0,0,1,0,1.45A.73.73,0,0,1,376.28,75Z" style="fill:#FF0055"></path><polygon points="105.76 190.1 108.26 190.56 108.81 193.19 109.37 190.56 111.87 190.1 109.38 189.49 108.81 187 108.25 189.49 105.76 190.1" style="fill:#FF0055"></polygon><path d="M76.89,229.94a.73.73,0,0,1,0,1.45A.73.73,0,0,1,76.89,229.94Z" style="fill:#FF0055"></path><path d="M206.76,176.62a.72.72,0,0,1,0,1.44A.72.72,0,0,1,206.76,176.62Z" style="fill:#FF0055"></path><path d="M148.68,146.78a.51.51,0,0,1,0,1A.51.51,0,0,1,148.68,146.78Z" style="fill:#FF0055"></path><path d="M101.19,82.05a1.39,1.39,0,0,1,0,2.77A1.39,1.39,0,0,1,101.19,82.05Z" style="fill:#FF0055"></path><path d="M413.13,46.46a1.39,1.39,0,0,1,0,2.78A1.39,1.39,0,0,1,413.13,46.46Z" style="fill:#FF0055"></path></g><g id="freepik--Moon--inject-28"><circle cx="250" cy="84.85" r="37.01" style="fill:#FF0055"></circle><circle cx="250" cy="84.85" r="37.01" style="fill:#fff;opacity:0.6000000000000001"></circle><path d="M276.17,111A37,37,0,0,1,213,83.81a35,35,0,1,0,36-35.94A37,37,0,0,1,276.17,111Z" style="fill:#FF0055;opacity:0.6000000000000001"></path><g style="opacity:0.5"><path d="M230.91,96.41A3.31,3.31,0,0,1,232,98.79a3.62,3.62,0,0,1-1.05,2.61,3.23,3.23,0,0,1-2.71.93,3.93,3.93,0,0,1-2.33-1.11,12.39,12.39,0,0,0,2.3-.16,2.9,2.9,0,0,0,1.59-.8,3.62,3.62,0,0,0,.94-1.6A6.65,6.65,0,0,0,230.91,96.41Z" style="fill:#FF0055"></path><path d="M226.33,100a2.1,2.1,0,0,1-.92-1.63,2.51,2.51,0,0,1,.73-1.94,2.28,2.28,0,0,1,2-.66,2.43,2.43,0,0,1,1.59,1,12.24,12.24,0,0,0-1.56.31,1.93,1.93,0,0,0-.9.52,2.8,2.8,0,0,0-.62.94A5.29,5.29,0,0,0,226.33,100Z" style="fill:#FF0055"></path><path d="M276.13,66.57a3.31,3.31,0,0,1-.79,2.48,3.59,3.59,0,0,1-2.52,1.25,3.23,3.23,0,0,1-2.64-1.1,3.87,3.87,0,0,1-1-2.38A11.82,11.82,0,0,0,271,68.23a2.84,2.84,0,0,0,1.71.46,3.71,3.71,0,0,0,1.77-.58A6.71,6.71,0,0,0,276.13,66.57Z" style="fill:#FF0055"></path><path d="M270.31,66.21a2.11,2.11,0,0,1,.41-1.84,2.5,2.5,0,0,1,1.83-1,2.32,2.32,0,0,1,1.95.86,2.45,2.45,0,0,1,.55,1.77,13.34,13.34,0,0,0-1.38-.81,2.05,2.05,0,0,0-1-.21,2.86,2.86,0,0,0-1.08.29A5.35,5.35,0,0,0,270.31,66.21Z" style="fill:#FF0055"></path><path d="M227.47,74.08a2.24,2.24,0,0,1-.54,1.69,2.53,2.53,0,0,1-1.72.86,2.22,2.22,0,0,1-1.8-.76,2.67,2.67,0,0,1-.68-1.62,8.17,8.17,0,0,0,1.24,1,2,2,0,0,0,1.17.32,2.63,2.63,0,0,0,1.21-.4A4.72,4.72,0,0,0,227.47,74.08Z" style="fill:#FF0055"></path><path d="M223.51,73.84a1.45,1.45,0,0,1,.27-1.26,1.73,1.73,0,0,1,1.25-.65,1.59,1.59,0,0,1,1.33.58,1.65,1.65,0,0,1,.37,1.21,7.93,7.93,0,0,0-.94-.55,1.24,1.24,0,0,0-.69-.14,1.93,1.93,0,0,0-.74.19A3.6,3.6,0,0,0,223.51,73.84Z" style="fill:#FF0055"></path><path d="M264.64,82.56a7.82,7.82,0,0,1,5.68,4.31,8.67,8.67,0,1,0-13.71,7.72,7.91,7.91,0,0,1,8-12Z" style="fill:#FF0055"></path><path d="M273.69,86.05a11.29,11.29,0,0,1-.31,6.77,13.25,13.25,0,0,1-4,5.7,9.57,9.57,0,0,1-6.64,2.29,10.26,10.26,0,0,1-6.28-2.59,13.78,13.78,0,0,0,6.27,1.25,10.9,10.9,0,0,0,1.52-.21,7.85,7.85,0,0,0,1.44-.48,9.73,9.73,0,0,0,2.59-1.58c.39-.34.79-.69,1.16-1.06a14.38,14.38,0,0,0,1-1.18,13.21,13.21,0,0,0,1.68-2.65A16,16,0,0,0,273.69,86.05Z" style="fill:#FF0055"></path><path d="M232.11,64.78A2.71,2.71,0,0,1,234,66.39a3,3,0,1,0-4.94,2.46,2.67,2.67,0,0,1-.29-2A2.76,2.76,0,0,1,232.11,64.78Z" style="fill:#FF0055"></path><path d="M235.22,66.16a3.74,3.74,0,0,1-.15,2.4,4.6,4.6,0,0,1-1.51,2,3.38,3.38,0,0,1-2.43.68,3.5,3.5,0,0,1-2.16-1.1,5,5,0,0,0,2.19.47,3.27,3.27,0,0,0,1.92-.7A5.53,5.53,0,0,0,235.22,66.16Z" style="fill:#FF0055"></path><path d="M242.05,104.24a3.88,3.88,0,0,1,2.53,2.49,4.33,4.33,0,1,0-7.27,2.94,3.94,3.94,0,0,1,4.74-5.43Z" style="fill:#FF0055"></path><path d="M246.3,106.54a5.68,5.68,0,0,1-.6,3.32,6.65,6.65,0,0,1-2.33,2.55,4.72,4.72,0,0,1-3.42.71,5.14,5.14,0,0,1-2.94-1.66,6.74,6.74,0,0,0,3,1,4.66,4.66,0,0,0,2.9-.77,7.36,7.36,0,0,0,2.23-2.18A7.78,7.78,0,0,0,246.3,106.54Z" style="fill:#FF0055"></path><path d="M229.31,71.92c.55,1.33.47,3.18-.79,4.08a31.27,31.27,0,0,1,.79-4.08Z" style="fill:#FF0055"></path><path d="M235.71,65.57a30.62,30.62,0,0,0,6.19-.25,5.68,5.68,0,0,1-6.19.25Z" style="fill:#FF0055"></path><path d="M236.83,67.53c1.29.44,2.17.81,3.43,1.32a2.66,2.66,0,0,1-3.43-1.32Z" style="fill:#FF0055"></path><path d="M275.06,90.48a30.61,30.61,0,0,0,6.19-.24,5.66,5.66,0,0,1-6.19.24Z" style="fill:#FF0055"></path><path d="M276.18,92.45c1.29.44,2.16.81,3.43,1.32a2.67,2.67,0,0,1-3.43-1.32Z" style="fill:#FF0055"></path><path d="M249.13,93.36c1.28-.48,2.18-.75,3.49-1.16a2.67,2.67,0,0,1-3.49,1.16Z" style="fill:#FF0055"></path><path d="M232.16,72.56c1.65,1,2.78,3.35,2,5.24a19.17,19.17,0,0,0-2-5.24Z" style="fill:#FF0055"></path><path d="M258.38,100.32a3.45,3.45,0,0,1-2.12,3.57,30.5,30.5,0,0,1,2.12-3.57Z" style="fill:#FF0055"></path><path d="M271.06,98.52a3.45,3.45,0,0,1,2.07,3.6,29.94,29.94,0,0,1-2.07-3.6Z" style="fill:#FF0055"></path><path d="M263,102.35c1.61,1.49,3,3.85,2.29,6.08-.4-2.24-1.53-4-2.29-6.08Z" style="fill:#FF0055"></path><path d="M260.85,101.88c1.19,1.55,1.48,4.09.1,5.61a19.19,19.19,0,0,0-.1-5.61Z" style="fill:#FF0055"></path></g></g><g id="freepik--Planet--inject-28"><path d="M98.1,94.61A12.15,12.15,0,1,1,85,83.47,12.14,12.14,0,0,1,98.1,94.61Z" style="fill:#455a64"></path><path d="M97.88,93.09a14.5,14.5,0,0,0-4.46-.25c-2.63.23-8.93,2.37-12.32,2.48-4.78.17-6.36-1.61-6.92-2.67a12.32,12.32,0,0,1,2-4.21c.86.93,3.71,3.74,11.12,2.53a14.64,14.64,0,0,0,7.38-3.9A12.09,12.09,0,0,1,97.88,93.09Z" style="fill:#37474f"></path><path d="M96.72,101.29a12.18,12.18,0,0,1-14.1,6,10.06,10.06,0,0,1,1.5-1.8c2.48-2.27,6.39-2.63,7.89-2.62A7.15,7.15,0,0,0,96.72,101.29Z" style="fill:#37474f"></path><path d="M98.12,95c0,.11,0,.22,0,.33v.3c0,.23,0,.45,0,.68s0,.4-.06.6,0,.15,0,.22,0,.17,0,.25,0,.17,0,.25,0,.2-.06.3a1.5,1.5,0,0,1-.06.29l-.06.25c0,.18-.09.36-.14.54h0a5,5,0,0,1-3.07,1.17c-2.36.3-5.45-.38-9.92.33A15.25,15.25,0,0,0,77.23,104h0A12.07,12.07,0,0,1,74,97.43c.67-.4,3-1.29,9.81,0a31.92,31.92,0,0,0,6.47.63c5.14-.1,7.1-2,7.8-3h0Z" style="fill:#37474f"></path><path d="M81.64,90c0,.54-.56,1-1.34,1.09s-1.45-.33-1.5-.86.56-1,1.34-1.09S81.59,89.5,81.64,90Z" style="fill:#263238"></path><path d="M79,92.42c0,.31-.33.58-.8.62s-.87-.18-.9-.48.34-.58.81-.62S79,92.12,79,92.42Z" style="fill:#263238"></path><path d="M94.37,101.14c0,.46-.49.87-1.18.93s-1.27-.27-1.3-.73.48-.88,1.17-.94S94.33,100.68,94.37,101.14Z" style="fill:#263238"></path><path d="M92.59,102.56c0,.25-.22.47-.55.49a.53.53,0,0,1-.62-.39c0-.25.23-.47.55-.49A.53.53,0,0,1,92.59,102.56Z" style="fill:#263238"></path><path d="M91.74,101.74c0,.15-.14.28-.35.3S91,102,91,101.8s.14-.28.35-.3S91.73,101.59,91.74,101.74Z" style="fill:#263238"></path><path d="M85,105.29c0,.41-.39.78-.93.82a.9.9,0,0,1-1.06-.66c0-.41.39-.78.94-.82A.89.89,0,0,1,85,105.29Z" style="fill:#263238"></path><path d="M84.52,103.69a.46.46,0,0,1-.45.47.46.46,0,0,1-.51-.39.49.49,0,0,1,1-.08Z" style="fill:#263238"></path><path d="M98.12,96.35A100.88,100.88,0,0,1,87.3,99.93a98,98,0,0,1-11.42,2.42c-5.95.86-10.11.66-10.49-.74s3-3.67,8.44-5.91a8.25,8.25,0,0,0,0,.86l0,.33c-2.78,1.35-4.37,2.62-4.14,3.47s2.31,1.15,5.47.9a66.78,66.78,0,0,0,11.68-2.21,66.33,66.33,0,0,0,11.21-4c2.85-1.38,4.49-2.66,4.25-3.53s-2.24-1.14-5.3-.91a10.38,10.38,0,0,0-.57-1.1c5.93-.85,10.17-.61,10.55.79S103.84,94,98.12,96.35Z" style="fill:#263238"></path><path d="M98,97.42a109.14,109.14,0,0,1-10.57,3.5h0a109.36,109.36,0,0,1-10.81,2.43c-8.15,1.36-14.07,1.15-14.62-.83s4.32-5.15,11.89-8.15c0,.19,0,.38,0,.57-6.3,2.61-10.27,5.3-9.79,7s5.36,2,12.2,1a94.63,94.63,0,0,0,11-2.41,95.56,95.56,0,0,0,10.76-3.64c6.38-2.62,10.41-5.35,9.93-7.06s-5.23-2-11.94-1c-.11-.15-.21-.31-.33-.46,8-1.32,13.79-1.09,14.33.88S105.66,94.4,98,97.42Z" style="fill:#37474f"></path></g><g id="freepik--Trees--inject-28"><path d="M47,400.79h53.17L94,373.33A35.19,35.19,0,0,1,77,368l16.48,3.07-7.6-33.56a31.22,31.22,0,0,1-6.77-4.31l6.23,2-1-4.47a32.19,32.19,0,0,1-9.38-6.21l8.74,3.42L73.6,283.52l-5.68,25.1,5.1-1.28a37.34,37.34,0,0,1-5.51,3.06l-8.16,36,5.92-1.47a39.34,39.34,0,0,1-6.36,3.44l-5.65,24.9,11.55-2.87a42.27,42.27,0,0,1-12.15,5.49l-1,4.33,17.75-4.43a42.18,42.18,0,0,1-18.25,6.66l-1.41,6.21,5.91-1.47a39.34,39.34,0,0,1-6.36,3.44Z" style="fill:#455a64"></path><path d="M56.79,365.26c3,1.12,13.84,5.56,16.19,6.85,0-.49,0-1,0-1.48Q69,368.3,65.09,366a92.86,92.86,0,0,1-8.5-5.06c-.13-.09-.06-.36.12-.28A70.85,70.85,0,0,1,65,365.27c2.68,1.57,5.33,3.19,8,4.82,0-3.79,0-7.58.05-11.37a91.66,91.66,0,0,1-12.42-6.31c-.13-.08,0-.33.12-.27A91.17,91.17,0,0,1,73,358.21c0-2-.06-17.16.43-36.38-2.58-1.31-5.24-2.45-7.82-3.76-.17-.09-.05-.39.13-.32,2.62,1,5.14,2.24,7.71,3.37.14-5.24.34-10.47.66-15.7a.13.13,0,1,1,.27,0c.36,9.72.33,28.53.21,38.27,2.68-2.14,5.53-4,8.25-6.1.11-.08.21.1.11.18-2.85,2.16-5.51,4.56-8.37,6.72,0,.55,0,1.1,0,1.65,2.9-1.32,5.85-2.56,8.78-3.81.23-.1.43.23.2.34-3,1.43-6,2.89-9,4.24-.07,4.83-.51,22.22-.69,30.63q8.22-4.16,16.55-8.08c.21-.1.4.2.19.32a172.39,172.39,0,0,1-16.75,8.41c-.15,7-.3,15.29-.39,22.28a.33.33,0,0,1-.65,0c.09-8.92.11-19.14.13-28.06-2.89-.71-13.8-5.38-16.39-6.66C56.32,365.62,56.51,365.15,56.79,365.26Z" style="fill:#37474f"></path><path d="M288.36,400.79h53.17l-6.22-27.46a35.19,35.19,0,0,1-17-5.3l16.48,3.07-7.6-33.56a31.22,31.22,0,0,1-6.77-4.31l6.23,2-1-4.47a32.19,32.19,0,0,1-9.38-6.21l8.74,3.42L315,283.52l-5.68,25.1,5.1-1.28a37.34,37.34,0,0,1-5.51,3.06l-8.16,36,5.92-1.47a39.34,39.34,0,0,1-6.36,3.44l-5.65,24.9,11.55-2.87A42.27,42.27,0,0,1,294,375.85l-1,4.33,17.75-4.43a42.18,42.18,0,0,1-18.25,6.66l-1.41,6.21,5.91-1.47a39.34,39.34,0,0,1-6.36,3.44Z" style="fill:#455a64"></path><path d="M298.14,365.26c2.95,1.12,13.84,5.56,16.19,6.85,0-.49,0-1,0-1.48q-3.94-2.33-7.9-4.61a92.86,92.86,0,0,1-8.5-5.06c-.13-.09-.06-.36.12-.28a70.85,70.85,0,0,1,8.31,4.59c2.68,1.57,5.33,3.19,8,4.82,0-3.79,0-7.58.05-11.37A91.66,91.66,0,0,1,302,352.41c-.13-.08,0-.33.12-.27a91.17,91.17,0,0,1,12.3,6.07c0-2-.06-17.16.43-36.38-2.58-1.31-5.24-2.45-7.82-3.76-.17-.09-.05-.39.13-.32,2.62,1,5.14,2.24,7.71,3.37.14-5.24.34-10.47.66-15.7a.13.13,0,0,1,.27,0c.36,9.72.33,28.53.21,38.27,2.68-2.14,5.53-4,8.25-6.1.11-.08.21.1.11.18-2.85,2.16-5.51,4.56-8.37,6.72,0,.55,0,1.1,0,1.65,2.9-1.32,5.85-2.56,8.78-3.81.23-.1.43.23.2.34-3,1.43-6,2.89-9,4.24-.07,4.83-.51,22.22-.69,30.63q8.22-4.16,16.55-8.08c.21-.1.4.2.19.32a172.39,172.39,0,0,1-16.75,8.41c-.15,7-.3,15.29-.39,22.28a.33.33,0,0,1-.66,0c.1-8.92.12-19.14.14-28.06-2.89-.71-13.8-5.38-16.39-6.66C297.67,365.62,297.86,365.15,298.14,365.26Z" style="fill:#37474f"></path><path d="M203.45,400.79h70l-8.19-36.14c-6.61-.43-14.91-2.11-22.35-7l21.68,4-10-44.17a40.72,40.72,0,0,1-8.91-5.67l8.2,2.59-1.32-5.89a42.18,42.18,0,0,1-12.34-8.16l11.5,4.49-13.25-58.46-7.49,33,6.73-1.68a49.69,49.69,0,0,1-7.26,4l-10.74,47.34,7.79-2a51.29,51.29,0,0,1-8.37,4.54l-7.44,32.77,15.2-3.79a55.28,55.28,0,0,1-16,7.23l-1.29,5.71L233,367.84a55.5,55.5,0,0,1-24,8.75l-1.85,8.18,7.78-1.94a51.41,51.41,0,0,1-8.37,4.53Z" style="fill:#455a64"></path><path d="M216.33,354c3.87,1.48,18.21,7.31,21.3,9,0-.66,0-1.31,0-2-3.46-2-6.93-4-10.4-6.07-3.72-2.16-7.72-4.1-11.19-6.65-.17-.12-.07-.47.16-.37,3.83,1.59,7.38,3.95,10.95,6s7,4.2,10.48,6.35c0-5,0-10,.07-15a120,120,0,0,1-16.34-8.31c-.18-.1-.06-.43.14-.35a119.36,119.36,0,0,1,16.2,8c0-2.6-.08-22.58.57-47.89-3.4-1.71-6.9-3.22-10.3-4.95-.22-.11-.07-.5.17-.41,3.45,1.35,6.77,2.95,10.15,4.43.19-6.89.45-13.78.87-20.67a.18.18,0,0,1,.36,0c.47,12.8.43,37.56.27,50.37,3.52-2.81,7.28-5.29,10.86-8,.14-.11.28.13.14.23-3.75,2.85-7.25,6-11,8.86l0,2.17c3.82-1.75,7.7-3.37,11.56-5,.3-.13.57.31.26.45-3.93,1.89-7.85,3.81-11.83,5.59-.09,6.35-.67,29.24-.91,40.31q10.82-5.46,21.79-10.63a.24.24,0,0,1,.24.42,229.16,229.16,0,0,1-22,11.07c-.2,9.2-.39,20.11-.51,29.32a.44.44,0,0,1-.87,0c.13-11.74.15-25.19.18-36.93-3.8-.94-18.16-7.09-21.57-8.77C215.71,354.5,216,353.89,216.33,354Z" style="fill:#37474f"></path><path d="M184.76,400.79H144.9l1.95-10.48c8.35-.55,14.86-6.21,14.86-6.21l-14.53,4.43,5.36-28.91a28.85,28.85,0,0,0,6.05-3.79l-5.67,1.72.88-4.71a29.7,29.7,0,0,0,8.58-4.85l-8.14,2.47,5.08-27.37a25.22,25.22,0,0,0,3.07-2.19l-2.83.86,5.28-28.41,7.54,40.71-6.56-3.13a24.56,24.56,0,0,0,7,5.68h0L180,375l-11-4.26a24.28,24.28,0,0,0,11.45,6.55l.73,3.91-5.93-1.35a21.79,21.79,0,0,0,6.33,3.52Z" style="fill:#37474f"></path><path d="M178.1,365.86c-2.39.91-10.87,4.34-12.77,5.39,0-.41,0-.81,0-1.21l6.41-3.74c2.29-1.33,3.81-1.81,6-3.38.11-.08,0-.29-.1-.23a41.41,41.41,0,0,0-5.8,3c-2.17,1.27-4.32,2.58-6.46,3.91q0-4.62,0-9.22a75,75,0,0,0,10.07-5.12c.11-.07,0-.27-.09-.21a73.85,73.85,0,0,0-10,4.91c0-1.6,0-3.19,0-4.79-.08-8.23-.1-16.47-.31-24.7,2.09-1.06,4.25-2,6.34-3.05.14-.07,0-.31-.1-.25-2.13.83-4.17,1.81-6.26,2.73-.11-4.25-.27-8.5-.53-12.74a.11.11,0,0,0-.22,0c-.29,7.89-.27,15.78-.17,23.67-2.17-1.73-4.48-3.26-6.69-4.94-.08-.07-.17.08-.08.14,2.3,1.76,4.46,3.7,6.78,5.45,0,.45,0,.9,0,1.34-2.36-1.07-4.74-2.07-7.12-3.09-.19-.08-.35.18-.16.27,2.42,1.17,4.83,2.35,7.28,3.45.06,3.9.13,7.81.18,11.72.09,6.82.24,13.64.38,20.47q-6.66-3.37-13.42-6.56c-.17-.08-.32.17-.15.26a137.8,137.8,0,0,0,13.58,6.82c.12,5.67.24,18.69.31,24.36a.27.27,0,0,0,.54,0c-.08-7.23-.09-21.81-.11-29a125.72,125.72,0,0,0,12.93-5.24C178.48,366.14,178.33,365.77,178.1,365.86Z" style="fill:#455a64"></path><path d="M292.75,400.79H251l4.9-21.58A27.68,27.68,0,0,0,269.19,375l-12.95,2.41,6-26.37a24.56,24.56,0,0,0,5.32-3.39l-4.9,1.55.79-3.52a25.21,25.21,0,0,0,7.37-4.87l-6.87,2.68,7.91-34.91,4.47,19.73-4-1a28.55,28.55,0,0,0,4.33,2.41L283.05,358l-4.66-1.16a30.42,30.42,0,0,0,5,2.71l4.45,19.57-9.08-2.26a33.11,33.11,0,0,0,9.54,4.32l.77,3.4-13.95-3.48a33.15,33.15,0,0,0,14.35,5.23l1.11,4.88-4.65-1.15a30.92,30.92,0,0,0,5,2.7Z" style="fill:#37474f"></path><path d="M285.05,372.87c-2.31.88-10.87,4.36-12.72,5.38v-1.17l6.21-3.62a73.42,73.42,0,0,0,6.68-4c.1-.08,0-.29-.1-.23a55.51,55.51,0,0,0-6.53,3.62c-2.11,1.23-4.19,2.5-6.26,3.78q0-4.47,0-8.94a71,71,0,0,0,9.76-5c.1-.06,0-.26-.09-.2a71.17,71.17,0,0,0-9.68,4.76c0-1.55.05-13.48-.33-28.59,2-1,4.12-1.93,6.15-3,.13-.07,0-.3-.11-.24-2.05.8-4,1.76-6.06,2.64-.11-4.11-.27-8.23-.52-12.34a.11.11,0,0,0-.21,0c-.28,7.64-.26,22.43-.16,30.08-2.11-1.68-4.35-3.16-6.49-4.79-.08-.07-.16.07-.08.14,2.24,1.7,4.33,3.59,6.57,5.28,0,.44,0,.87,0,1.3-2.28-1-4.59-2-6.9-3-.18-.08-.34.18-.16.27,2.35,1.13,4.69,2.27,7.07,3.34.05,3.79.4,17.46.54,24.07-4.3-2.18-8.65-4.3-13-6.35a.15.15,0,0,0-.15.25A137.26,137.26,0,0,0,271.62,383c.12,5.5.23,12,.3,17.51a.26.26,0,0,0,.52,0c-.08-7-.09-15-.11-22.05a130.67,130.67,0,0,0,12.89-5.24C285.43,373.15,285.28,372.78,285.05,372.87Z" style="fill:#455a64"></path><path d="M128.85,400.79H71.59l2.79-15.06c12-.78,21.36-8.92,21.36-8.92l-20.88,6.37,7.71-41.53a41.6,41.6,0,0,0,8.69-5.46l-8.15,2.48,1.26-6.77a42.21,42.21,0,0,0,12.33-7L85,328.49l7.3-39.33A36.85,36.85,0,0,0,96.72,286l-4.06,1.24,7.57-40.82,10.84,58.48-9.42-4.5a35.17,35.17,0,0,0,10.1,8.16h0L122,363.66l-15.85-6.11a34.75,34.75,0,0,0,16.46,9.4l1,5.63-8.53-1.94a31.49,31.49,0,0,0,9.1,5.06Z" style="fill:#37474f"></path><path d="M119.28,350.6c-3.42,1.31-15.6,6.24-18.34,7.74,0-.57,0-1.15,0-1.73,3.06-1.8,6.13-3.58,9.2-5.37,3.29-1.91,5.48-2.6,8.55-4.86.15-.11.07-.42-.14-.33a59.27,59.27,0,0,0-8.33,4.33c-3.12,1.83-6.21,3.71-9.28,5.61,0-4.41,0-8.83-.06-13.25a104.45,104.45,0,0,0,14.46-7.35c.16-.09,0-.38-.13-.31a107.65,107.65,0,0,0-14.33,7.07c0-2.3,0-4.59-.05-6.89-.13-11.82-.15-23.66-.45-35.48,3-1.52,6.1-2.86,9.11-4.38.2-.1.06-.45-.15-.37-3,1.19-6,2.61-9,3.92-.16-6.1-.39-12.19-.76-18.29a.16.16,0,0,0-.32,0c-.42,11.33-.39,22.67-.24,34-3.12-2.49-6.44-4.69-9.62-7.1-.12-.09-.24.12-.12.21,3.32,2.52,6.42,5.32,9.75,7.83,0,.64,0,1.28,0,1.92-3.38-1.54-6.81-3-10.22-4.44-.27-.12-.51.27-.23.4,3.47,1.67,6.94,3.37,10.47,4.94.08,5.62.17,11.23.24,16.84.13,9.81.35,19.61.56,29.41q-9.57-4.85-19.28-9.41c-.25-.12-.46.23-.22.37a203.17,203.17,0,0,0,19.51,9.8c.17,8.14.34,26.84.45,35a.39.39,0,0,0,.77,0c-.12-10.39-.13-31.34-.16-41.73,3.36-.83,15.56-6,18.58-7.52C119.83,351,119.61,350.48,119.28,350.6Z" style="fill:#455a64"></path></g><g id="freepik--Character--inject-28"><path d="M362.92,198.56s-1.41.86-3.58,1.94c0-.77-.1-1.55-.16-2.33q-.24-3.54-.57-7.06a.05.05,0,1,0-.1,0c0,2.4,0,4.81.16,7.21,0,.82.08,1.63.13,2.45-.66.33-1.39.67-2.16,1,0-.33,0-.66,0-1-.05-1.57-.1-3.14-.14-4.72-.1-3.09-.31-6.18-.42-9.28a.07.07,0,0,0-.13,0c0,3.1,0,6.19,0,9.28,0,1.53.05,3.05.08,4.57,0,.47,0,.94,0,1.41-1.1.47-2.27.93-3.48,1.33,0-.24,0-.47,0-.7,0-1.22,0-2.44,0-3.65,0-2.44-.17-4.87-.34-7.31,0-.06-.12-.06-.12,0,0,2.44,0,4.87,0,7.31,0,1.21,0,2.43,0,3.65,0,.29,0,.58,0,.87a24.69,24.69,0,0,1-7.08,1.31h-.14a24.46,24.46,0,0,1-6.8-1.22c0-3.63-.14-7.26-.16-10.88a.09.09,0,0,0-.17,0c0,3.57-.22,7.14-.21,10.71a48.06,48.06,0,0,1-5.15-2c0-1-.05-1.95-.07-2.92-.07-2.79-.14-5.58-.19-8.37,0,0-.09,0-.09,0q-.09,4.19-.21,8.37c0,.87-.05,1.75-.07,2.63l-1.2-.58c-.17-5.3-.45-10.6-.39-15.9,0,0-.07,0-.07,0-.08,5.2-.28,10.39-.16,15.58-1.86-.95-3-1.67-3-1.67s-3.92-50.65,3.67-60.61c6.26-8.21,14.29-6.8,14.29-6.8H345s7.76-1.41,14,6.8C366.56,147.91,362.92,198.56,362.92,198.56Z" style="fill:#263238"></path><path d="M427.56,379.05s21.6,38.2,21.61,38.23c3.47,7.7,6.38,14.52,7.55,18.19a.11.11,0,0,1,0,.06,5.68,5.68,0,0,1,.5,2.63.08.08,0,0,1,0,.07c-1.59,2.59-62.36,32.12-64.82,32.44s-3.56-6.69-2.12-9.72,19.66-24.74,19.66-24.74l-21.21-38.36Z" style="fill:#eb9481"></path><path d="M393.37,470.44c2.46-.32,62.26-29.62,63.85-32.2l0-.07a6.16,6.16,0,0,0-.5-2.64.11.11,0,0,0,0-.06c-1.17-3.66-4.08-10.48-7.54-18.19,0,0-3.64-6.68-5.09-9l-38.65,20,4.5,7.95s-17.23,21.49-18.69,24.52S390.9,470.77,393.37,470.44Z" style="fill:#ebebeb"></path><path d="M392.26,469.62c2.48-.38,63-31.57,64.57-34.22.61-1-3.42-10.08-8.61-20.92l-.16-.34-39.29,19.69.36.65s-17.83,22.3-19.23,25.4S389.78,470,392.26,469.62Z" style="fill:#FF0055"></path><path d="M391.74,466.92c10.07-5.51,51.23-26.78,61.61-31.45.09,0,.12,0,0,.06-9.87,5.68-51.21,26.61-61.57,31.56C391.6,467.19,391.52,467,391.74,466.92Z" style="fill:#fff"></path><path d="M405.91,436.29c3.63-2.82,8.86-4.73,13.4-3.45.18.05.1.3-.05.32a63.24,63.24,0,0,0-13.07,3.63A.29.29,0,0,1,405.91,436.29Z" style="fill:#263238"></path><path d="M403.91,439.53c3.63-2.82,8.86-4.73,13.4-3.45.18.05.1.3-.05.32A63.24,63.24,0,0,0,404.19,440,.29.29,0,0,1,403.91,439.53Z" style="fill:#263238"></path><path d="M401.91,442.77c3.63-2.82,8.86-4.73,13.4-3.45.18.05.11.3-.05.32a63.42,63.42,0,0,0-13.07,3.63A.29.29,0,0,1,401.91,442.77Z" style="fill:#263238"></path><path d="M441.55,426.07c3.26-4.46,10.19.6,6.93,5.06S438.29,430.53,441.55,426.07Z" style="fill:#fff"></path><path d="M406.47,437.83,402.12,465a106.67,106.67,0,0,1-9.86,4.61c-2.47.39-3.74-6.66-2.36-9.74C391,457.54,401.44,444.17,406.47,437.83Z" style="opacity:0.1"></path><path d="M390.22,467.92c-.87,1,1.24,4.5,2.17,4.39s66.79-34.41,67.79-35.24-1.5-4.64-2.91-4.18S390.22,467.92,390.22,467.92Z" style="fill:#263238"></path><path d="M444.18,404.71,400.63,428s-55-78.33-56.06-98.91c-1.52-28.42,22.75-118.65,22.75-118.65l38.71-.27s-15.74,92.8-14.46,108.63C392.24,327,444.18,404.71,444.18,404.71Z" style="fill:#37474f"></path><path d="M396.83,419c2.24-1.61,22.89-13.57,38.6-21.21.11-.05.18.09.08.16-4.76,3.15-35.57,20-38.56,21.22C396.85,419.17,396.73,419,396.83,419Z" style="fill:#263238"></path><path d="M386.2,298.93c1.8-13.57,3.77-27.13,6-40.64s4.66-27.14,7.49-40.6c.35-1.65.71-3.29,1.07-4.93a.2.2,0,0,1,.4.08c-2.39,13.35-4.84,26.7-7,40.09s-4.24,26.81-6.07,40.26q-.69,5-1.33,10a87.89,87.89,0,0,0-1,10.37,26.41,26.41,0,0,0,1.66,9.72,55.21,55.21,0,0,0,4.46,8.73c7,11.85,38.37,63.63,39.18,65.13.05.1-.08.2-.15.11-7.52-11.68-30.87-49-38-61-3.21-5.44-6.88-10.94-7.93-17.27C383.93,312.36,385.33,305.47,386.2,298.93Z" style="fill:#263238"></path><path d="M394.47,404.71s.43,44.16.43,44.2c-.23,8.44-.59,15.84-1.13,19.66a.13.13,0,0,1,0,.06,5.94,5.94,0,0,1-.69,2.59s0,0-.05,0c-2.57,1.63-70.13,1.74-72.48,1s-.29-7.57,2.32-9.67,28.48-13.7,28.48-13.7l0-44.13Z" style="fill:#eb9481"></path><path d="M394.81,439.84s.09,9,.09,9.07c-.23,8.44-.59,15.84-1.13,19.66a.13.13,0,0,1,0,.06,11.43,11.43,0,0,1-.69,2.59s0,0-.05,0c-2.57,1.63-70.13,1.74-72.48,1s-.29-7.57,2.32-9.67,28.48-13.7,28.48-13.7v-9.21Z" style="fill:#ebebeb"></path><path d="M320.5,472.13c2.4.76,70.49-.43,73.05-2.13,1-.62,1.39-10.56,1.53-22.57v-.38l-43.93.28,0,.75s-25.85,12.12-28.48,14.27S318.11,471.38,320.5,472.13Z" style="fill:#FF0055"></path><path d="M321.23,469.48c11.47-.48,57.79-1.35,69.17-1,.1,0,.1.07,0,.07-11.36.73-57.69,1.22-69.17,1.08C321,469.66,321,469.49,321.23,469.48Z" style="fill:#fff"></path><path d="M347.49,448.28c4.5-.93,10-.33,13.54,2.83.14.12,0,.31-.18.27a63,63,0,0,0-13.34-2.53A.29.29,0,0,1,347.49,448.28Z" style="fill:#263238"></path><path d="M344.26,450.3c4.5-.92,10-.33,13.55,2.83.13.12,0,.31-.19.27a63.52,63.52,0,0,0-13.33-2.53A.29.29,0,0,1,344.26,450.3Z" style="fill:#263238"></path><path d="M341,452.32c4.51-.92,10-.33,13.55,2.83.14.12,0,.32-.19.27a64,64,0,0,0-13.33-2.53A.29.29,0,0,1,341,452.32Z" style="fill:#263238"></path><path d="M319.42,469.71c-1.21.49-.87,4.58,0,4.89s75.13-1.32,76.38-1.62.72-4.83-.75-5S319.42,469.71,319.42,469.71Z" style="fill:#263238"></path><path d="M384,454.88c4.89-2.56,8.87,5,4,7.6S379.07,457.44,384,454.88Z" style="fill:#fff"></path><path d="M367.32,210.31s11.78,39,13.09,39.57c1.49.68-30.73,54.79-32.63,79.93C346.56,345.89,349,436.88,349,436.88h47.1s-2.27-81.8-3.34-107.72c-.42-10.05,32.33-60.1,32.74-91.26.12-9.82-6.94-27.77-6.94-27.77Z" style="fill:#37474f"></path><path d="M392.44,328.46c0-.42.32-.55.36-.13,1.06,14,1.31,28,2,42s.29,17.38.91,31.39c.35,7.93,0,15.88.2,23.82a.1.1,0,0,1-.19,0C394.23,411.61,392.45,336.4,392.44,328.46Z" style="fill:#263238"></path><path d="M347.78,330.37a68.64,68.64,0,0,1,1-10.33,51.55,51.55,0,0,1,2.91-9.7c2.6-6.56,5.68-13,8.62-19.37s6-13,9.15-19.39q2.65-5.41,5.33-10.82c1.81-3.64,3.76-7.21,5.66-10.81a.12.12,0,0,1,.22.11c-3,6.48-6,13-9,19.46s-6,13-8.95,19.5-5.84,12.8-8.59,19.27a63.42,63.42,0,0,0-3.36,9.53,56.26,56.26,0,0,0-1.38,10.26c-.46,8-.68,16.11-1.47,24.14,0,.1-.17.09-.18,0C347.44,344.94,347.56,337.63,347.78,330.37Z" style="fill:#263238"></path><path d="M352.36,427.58c2.74-.36,23.6-1.08,41.06-.34a.09.09,0,0,1,0,.18c-5.69.51-37.84.72-41,.36C352.28,427.77,352.23,427.59,352.36,427.58Z" style="fill:#263238"></path><path d="M373.9,247.76a89.45,89.45,0,0,1,14.73,5.11.16.16,0,0,1-.1.3c-4.94-1.55-10-3-14.82-4.82A.31.31,0,0,1,373.9,247.76Z" style="fill:#263238"></path><path d="M369.15,215.47c0-.16.28-.23.3-.05a157.56,157.56,0,0,0,2.42,15.74c.47,2.42,3.81,15.69,7.94,14.28.69-.24,1-1,1-2.05a17.33,17.33,0,0,0-1-4.08c-.76-2.77-1.43-5.56-2-8.39a77.73,77.73,0,0,1-1.47-16,.14.14,0,0,1,.28,0,146.91,146.91,0,0,0,3.54,21.88c.89,3.46,3.2,8.55-.41,9.47s-7-7.66-7.71-10A81.51,81.51,0,0,1,369.15,215.47Z" style="fill:#263238"></path><path d="M379.73,245.81a22.67,22.67,0,0,1,1.24,2.7,6.21,6.21,0,0,1,.63,2.25.16.16,0,0,1-.28.1,8.08,8.08,0,0,1-1.22-2.14c-.41-.83-.84-1.65-1.22-2.49A.47.47,0,0,1,379.73,245.81Z" style="fill:#263238"></path><path d="M387.61,342.3c-.24-6.7-1-13.72,1.21-20.18a67.72,67.72,0,0,1,4.3-9.17q2.44-4.72,4.81-9.49c6.29-12.71,12.22-25.62,17.52-38.78,2.55-6.34,4.83-12.84,5.74-19.64a60.49,60.49,0,0,0-1.32-21.36q-.58-2.62-1.29-5.2c0-.13.15-.2.19-.07a70.39,70.39,0,0,1,3.68,20.43,57.75,57.75,0,0,1-3.55,19.53c-2.26,6.57-5.08,13-7.87,19.32q-4.3,9.84-8.95,19.53c-3.08,6.42-6.36,12.74-9.62,19.08a34.52,34.52,0,0,0-3.61,9.62,49.52,49.52,0,0,0-.39,10.54c.56,14.81,1.83,64.11,2,78.89,0,1.87,0,3.75.07,5.62a.13.13,0,0,1-.26,0C389.35,406.25,388.15,357.07,387.61,342.3Z" style="fill:#263238"></path><path d="M398.18,219.9c0-.1.16-.08.18,0,.55,4.08.87,8.31,2.84,12,1.8,3.39,4.95,5.58,8.39,7.11a62.93,62.93,0,0,0,6.11,2.25.13.13,0,0,1-.05.25c-3.89-.81-7.85-1.72-11.24-3.91-3.62-2.34-5.49-6.09-6.08-10.28A35.59,35.59,0,0,1,398.18,219.9Z" style="fill:#263238"></path><path d="M364.19,180.59c.84,20.32-5.32,50.5-12.39,54.3-3.37,1.81-9,5.78-15.47,4.2-14.13-3.44-31-13.9-37.5-22.34-2.31-3,10.34-20.12,14.12-18.66,8.85,3.41,21.77,12.41,22.72,11.82,3.5-2.17,11.57-21.47,17.16-35C359.62,158.45,363.85,172.49,364.19,180.59Z" style="fill:#eb9481"></path><path d="M310.13,225.2c-2.87-.44-18.43-2.66-21.84-4.36s-12.9-7.27-11.86-10,3.93-1.34,3.93-1.34-3.63-3-2.34-5.66,5.74-.32,5.74-.32-3.5-3.35-2-5.92,5.55.54,5.55.54-3.34-2.91-1.23-4.52c2.53-1.93,8.09,4.13,12,5.72.89.36,18.52,6,18.52,6Z" style="fill:#eb9481"></path><path d="M286.94,197.86c4.09,4.44,6.66,5.68,12.4,7.23.12,0,.1.2,0,.18-5.77-1-9.21-2.09-12.61-7.22C286.54,197.8,286.74,197.65,286.94,197.86Z" style="fill:#263238"></path><path d="M283.44,203.14c4.66,4.24,7.43,5.61,13.33,7.67.08,0,0,.18,0,.15-6-1.54-9.37-2.7-13.47-7.55C283.08,203.19,283.23,202.94,283.44,203.14Z" style="fill:#263238"></path><path d="M280.67,209.58c4.8,3.78,7.77,5.41,13.76,6.68a.11.11,0,0,1,0,.22c-6.23-.7-9.95-2.7-13.83-6.74C280.3,209.46,280.36,209.34,280.67,209.58Z" style="fill:#263238"></path><path d="M321.07,203.62s-4.81-5.85-7.5-8S298,189.4,297,192.13c-1.36,3.53,5.6,7.39,9.26,8.84,0,0-3.16,8.15,1.24,12S321.07,203.62,321.07,203.62Z" style="fill:#eb9481"></path><path d="M296.9,193.22c1.07,4.11,6,5.71,9.44,7.38a.35.35,0,0,1,.12.56c-1.1,3.51-1.63,8.77.75,11.84a.09.09,0,0,1-.13.12c-3-3-2.9-8.16-1.45-11.92-3.56-1.66-8.43-3.47-8.77-8A0,0,0,0,1,296.9,193.22Z" style="fill:#263238"></path><path d="M303.46,227s25.84,14.25,35.07,13.27,13.48-4.05,16.1-6a8.65,8.65,0,0,0,2.26-3c4.85-9.55,8.5-36.28,8.39-50.18-.09-10.44-4.45-17.66-9.58-11.92a23.88,23.88,0,0,0-3.93,6.84c-6.61,16-15.35,32.45-16.17,32.45s-13.16-7.17-13.16-7.17Z" style="fill:#FF0055"></path><path d="M363.88,201.13c-.49,3.94-1.09,7.94-1.79,11.74l-1,1.4-.72-6.2-4.48-1.45,4.1-2-.46-3,2.87,1.61Zm-13.11,30.72,1.05-1.76-2,.18-.68-1.63-1.05,1.77-1.74-.42,1,1.5-1.31,1.28,2.08-.19,1.16,2.15.47-2,1.58.57Zm-21.51-6.29.9-.8-1.14-.25-.1-1-.91.81-.9-.54.32,1-1,.48,1.21.27.27,1.41.62-1.05.78.6ZM358.82,186l.05-1.2-1,.64-.82-.65,0,1.22-1,.26,1,.49-.32,1,1-.68,1.2.78-.32-1.17,1-.15Zm-42,36-3.63.54-1.44-2.93L310,223l-3.13-.58,0,.08,2,2.58-2.28,2.5,3.83-.58,2.38,3.86.65-3.77,3,.88-1.31-2.59Zm33.67-34.37-2.3-.27-.12-2.31-.54.73v0c-.77,1.69-1.53,3.35-2.3,4.95l.63,2,1.48-2,2.11.7-.8-2.48ZM333.61,216l2.54.52-1-2.27,1.66-1.49-2.55-.53L334,210l-1.37,1.86-2.06-1,1.09,2.4-2.09,2.27,2.59-.26,0,2.11Z" style="fill:#fff"></path><path d="M365.28,181.09c.11,13.89-3.54,40.62-8.39,50.16a9.08,9.08,0,0,1-2.25,3,28.46,28.46,0,0,1-13.36,5.59l14.26-70.55c.06-.06.1-.12.15-.18C360.83,163.42,365.19,170.64,365.28,181.09Z" style="opacity:0.1"></path><path d="M311.67,228.13c.52-1,6.36-9.12,7.67-10.86s6.57-8.9,8.07-10.58a.08.08,0,0,1,.13.09c-1.16,1.93-6.45,9.16-7.75,11s-7.24,9.71-8,10.49C311.71,228.3,311.63,228.2,311.67,228.13Z" style="fill:#263238"></path><path d="M335.6,208.45a13.39,13.39,0,0,1,7.06,4,57.71,57.71,0,0,1-7.06-4Z" style="fill:#263238"></path><path d="M359.9,213.78l2.57,13.2,59-9.88s-25.67-41.18-45.21-52.4c-10.15-5.83-17.74-1.91-21.15,5.48-.86,1.87-4.39,24.28-3.15,33.09A13.88,13.88,0,0,0,359.9,213.78Z" style="fill:#FF0055"></path><path d="M364.75,209.19l-3.68,5.08-.72-6.21-4.48-1.44,4.1-2-.45-3,2.86,1.61,2.49-3.43,1.22,4.51,3.79-.3-2.34,2.74,2.35,4.06Zm32.83-23.85,1.11.32-.52-.61Zm6.24,6.69,0,.44.17-.2ZM376.35,222l-2,.17-.69-1.62-1.05,1.77-1.73-.43,1,1.51-1.32,1.27,2.08-.18.39.72h0l1.14-.2.1-.38.71.26h0l.67-.12-.44-1Zm34.79-15.54,1.05-1.76-2,.17-.68-1.62L408.48,205l-1.73-.43,1,1.51-1.31,1.27,2.08-.19,1.16,2.15.47-2,1.57.57ZM389.67,186l.91-.81-1.14-.25-.1-1-.91.81-.9-.55.32,1-1,.49,1.21.26.27,1.41.62-1,.78.6Zm-30.85,0,.05-1.2-1,.64-.82-.65,0,1.22-1,.26,1,.49-.32,1,1-.68,1.2.78-.32-1.17,1-.15Zm15.6-5.63,1.75-3.38-3.63.54-1.45-2.94-1.75,3.4-3.26-.6,2.09,2.68-2.29,2.5,3.84-.58,2.37,3.86.66-3.77,3,.89Zm42.09,35.23,3.7-.43-1.4-2.15Zm3.79-.29v2l1.16-.19Zm-32.58-9.23,2.54.52-1-2.27,1.66-1.49-2.55-.52-.21-2.25-1.37,1.87-2.06-1,1.09,2.41-2.09,2.27,2.59-.27,0,2.11Z" style="fill:#fff"></path><path d="M367.81,208.78a48.47,48.47,0,0,1,7-1c1.18-.06,2.34-.07,3.52-.06.58,0,1.16,0,1.75,0a7.86,7.86,0,0,0,1.81-.22c.05,0,.08.06,0,.08a14.28,14.28,0,0,1-1.66.49,11.71,11.71,0,0,1-1.67.2c-1.19.08-2.38.11-3.57.17-2.39.13-4.79.27-7.17.57C367.73,209,367.7,208.8,367.81,208.78Z" style="fill:#263238"></path><path d="M362.9,212.52a50.54,50.54,0,0,1,5.47-2c.93-.28,1.87-.51,2.83-.71.45-.1.91-.19,1.37-.27s1-.12,1.52-.22c.05,0,.08.07,0,.08-.47.11-.92.3-1.39.43l-1.39.4c-.94.28-1.87.56-2.8.82-1.87.52-3.73,1.06-5.59,1.65C362.84,212.71,362.81,212.56,362.9,212.52Z" style="fill:#263238"></path><path d="M372.84,163.42c24.86,11.1,52.34,34.17,56.45,49.89,4,15.53-1.75,15.38-3.31,15.67-9.56,1.74-42.57-36-53.74-52S366.7,160.68,372.84,163.42Z" style="fill:#FF0055"></path><path d="M410.25,190.16l-3.37-1.28-3,3.59-.23-5.37-6-1.76,5.6-2.77,0-.61c1.95,1.52,3.84,3.07,5.65,4.65l-.13.08Zm.89,16.28,1.05-1.76-2,.17-.68-1.62L408.48,205l-1.73-.43,1,1.51-1.31,1.27,2.08-.19,1.16,2.15.47-2,1.57.57ZM389.67,186l.91-.81-1.14-.25-.1-1-.91.81-.9-.55.32,1-1,.49,1.21.26.27,1.41.62-1,.78.6Zm-18.8-11,1.37,2a2.09,2.09,0,0,1,.16.22l-1.31-2.65Zm1.73,2.51c.58.82,1.22,1.71,1.92,2.64l1.64-3.18Zm49.82,38.74,3.73.71-1.55-3.32,2.4-2.22-3.76-.72-.36-3.29-2,2.77-3.05-1.48,1.65,3.51-3,3.38,3.8-.45v3.11Z" style="fill:#fff"></path><path d="M410.43,220c-1.58-1.69-3.19-3.35-4.74-5.06L401,209.82c-3.12-3.4-6.28-6.77-9.35-10.22s-6.19-6.84-9.24-10.3q-2.29-2.6-4.52-5.25c-1.52-1.74-2.95-3.55-4.4-5.35a125,125,0,0,0,8.26,11.15c2.93,3.59,6,7.05,9.08,10.51s6.29,6.78,9.55,10.06S406.93,216.93,410.43,220Z" style="fill:#263238"></path><path d="M377,183.37a19.14,19.14,0,0,0-1.79-1.71c-.31-.26-.62-.53-.94-.78s-.64-.52-1-.75a6.23,6.23,0,0,0,1.58,2A6.81,6.81,0,0,0,377,183.37Z" style="fill:#263238"></path><path d="M429.05,227.5c-6.32,3.53-16.67,1.58-44.42-5.76-3.84-1-4-30.05.19-29.17,5.24,1.1,25.32,6.51,26.74,7.09C423.52,204.56,433.35,225.11,429.05,227.5Z" style="fill:#eb9481"></path><path d="M395.52,197.19S386,191,380,189.23a40.25,40.25,0,0,0-19.23-.24c-6.85,1.58-22.31,10.11-20.63,15,1.52,4.42,16.88-5.1,16.88-5.1S339.74,206,342.55,211s20-7.08,20-7.08S345,211.62,348.7,216.3c2.8,3.54,19-6.51,19-6.51s-15.06,6.74-12.33,10.5c3,4.16,18.55-4.18,18.55-4.18,8.54,8.4,16.22,8.71,21.6,8.43C396.82,224.48,395.52,197.19,395.52,197.19Z" style="fill:#eb9481"></path><path d="M362.82,196c-2.06.77-4.15,1.53-6.13,2.47s-3.94,2-5.83,3.08a37.7,37.7,0,0,0-6.92,5.07c4-3.18,11-6.67,13-7.61s3.91-2,5.89-2.93C362.91,196.09,362.87,196,362.82,196Z" style="fill:#263238"></path><path d="M366.36,203.14c-2.59,1.09-5.2,2.07-7.74,3.27s-4.82,2.56-7.26,3.92c-.18.11-.06.18.13.08,2.49-1.27,4.89-2.25,7.39-3.49s5-2.58,7.51-3.72A0,0,0,0,0,366.36,203.14Z" style="fill:#263238"></path><path d="M370.49,208.69a62.58,62.58,0,0,0-11.44,5.91c-.19.11,0,.18.17.08,3.77-2,6.71-3.67,11.32-5.85C370.61,208.79,370.57,208.66,370.49,208.69Z" style="fill:#263238"></path><path d="M394.18,193.76l3.58,34.34s28.08,4.54,31.74-1-6.63-22.14-15-26.75C411,198.44,394.18,193.76,394.18,193.76Z" style="fill:#FF0055"></path><path d="M411.76,207.88l-1.57-.57-.47,2-1.16-2.15-2.08.19,1.31-1.27-1-1.51,1.73.43,1.06-1.77.68,1.62,2-.17-1.05,1.76Zm12.84,5.76,1.31-1.23c-.27-.46-.57-.93-.88-1.38l-1.79-.34-.27-2.51c-.11-.14-.21-.28-.34-.42l-1.71,2.41-3.05-1.48,1.64,3.51-3,3.37,3.79-.44v3.1l2.11-2,3.74.71Z" style="fill:#fff"></path><path d="M394.3,194.91l-.06-1.15-.08.06c2.85.92,5.69,1.82,8.52,2.77s5.66,1.88,8.42,3a32.58,32.58,0,0,1,4,1.79,25.45,25.45,0,0,1,3.63,2.5,28.27,28.27,0,0,1,5.79,6.71,23.47,23.47,0,0,0-5.38-7.19,21,21,0,0,0-3.66-2.68,34.69,34.69,0,0,0-4.11-1.91c-2.81-1.07-5.66-2-8.53-2.85s-5.77-1.58-8.69-2.22l-.08,0v.08Z" style="fill:#263238"></path><path d="M402.18,199.51c.08,1.72.3,3.45.47,5.17s.37,3.44.58,5.16c.43,3.43.87,6.86,1.36,10.28.14.94.27,1.88.43,2.81s.44,2,.6,3c0,.08.13.06.12,0-.09-.84-.06-1.7-.14-2.55s-.16-1.75-.27-2.63c-.19-1.72-.39-3.43-.61-5.15-.42-3.43-.86-6.87-1.39-10.28-.31-1.93-.55-3.89-1-5.8A.09.09,0,0,0,402.18,199.51Z" style="fill:#263238"></path><path d="M397.44,225c.23,1,.41,2,.57,3l-.21-.22c6,.69,12,1.21,18,1.38a67.44,67.44,0,0,0,9-.33c1.42-.23,3-.28,4.13-1.31a6.58,6.58,0,0,0,1.73-4,6.49,6.49,0,0,1-1.52,4.23c-4.78,3.93-24.95,1.52-31.4.54l-.2,0c-.07-1.09-.1-2.17-.09-3.27Z" style="fill:#263238"></path><path d="M367.93,166c.33,1.09-.7,10-5.22,12.26-1.47.74-5.9-7.1-5.9-7.1l-.46-.51-6.44-7.07,6-11.53.91-1.59s1.64,2.05,3.64,4.62l.29.37c.12.14.23.27.33.41.31.38.62.77.92,1.16s.45.59.68.92l.7.95A60.63,60.63,0,0,1,367.93,166Z" style="fill:#eb9481"></path><path d="M360.5,155.1a19.15,19.15,0,0,1-4.15,15.57l-6.44-7.07,6-11.53.91-1.59S358.5,152.53,360.5,155.1Z" style="fill:#263238"></path><path d="M332,157.1c6,15.67,16.05,13.86,19.42,12.56,3.07-1.17,13.36-5.56,9-21.76s-13.51-18.38-20.66-16.06S326,141.43,332,157.1Z" style="fill:#eb9481"></path><path d="M334.33,156.39c.4,0,.76-.06,1.16-.09a1.89,1.89,0,0,0,1.16-.32.59.59,0,0,0,.09-.72,1.48,1.48,0,0,0-1.4-.54,2.21,2.21,0,0,0-1.46.59A.64.64,0,0,0,334.33,156.39Z" style="fill:#263238"></path><path d="M343.78,150.1a10.09,10.09,0,0,1-1,.54,1.9,1.9,0,0,1-1.15.35.59.59,0,0,1-.46-.56,1.46,1.46,0,0,1,.9-1.2,2.17,2.17,0,0,1,1.55-.28A.64.64,0,0,1,343.78,150.1Z" style="fill:#263238"></path><path d="M343.51,154.5c0-.05.1,0,.11.06.38,1.08,1,2.26,2.09,2.24,0,0,.06,0,0,.06C344.48,157.15,343.69,155.58,343.51,154.5Z" style="fill:#263238"></path><path d="M344,153c1.67-.79,3.13,2.61,1.58,3.34S342.63,153.67,344,153Z" style="fill:#263238"></path><path d="M344.84,152.93c.34.07.75.28,1.08.17s.5-.62.58-1.08c0-.05.05,0,.07,0,.3.64.37,1.41-.2,1.8s-1.17,0-1.61-.6C344.68,153.13,344.7,152.91,344.84,152.93Z" style="fill:#263238"></path><path d="M348,162.81c-.1.37-.15.83-.5,1.06a3,3,0,0,1-1.21.37,0,0,0,0,0,0,.07,1.56,1.56,0,0,0,1.57-.18,1.25,1.25,0,0,0,.28-1.33C348.14,162.74,348.05,162.76,348,162.81Z" style="fill:#263238"></path><path d="M342.09,161.32s.7,1.58,1.12,2.26c0,.06.23,0,.47-.14,0,0,0,0,0,0a3.82,3.82,0,0,0,2.4-3.18c0-.09-.12-.11-.16,0a5.72,5.72,0,0,1-2.44,2.7c-.17-.16-1.11-2.74-1.23-2.68a6.89,6.89,0,0,0-1.33,1.32c-1.56-3.24-2.58-6.71-4.18-9.91a.11.11,0,0,0-.21.07,58.74,58.74,0,0,0,4.05,10.86C340.8,163,341.89,161.61,342.09,161.32Z" style="fill:#263238"></path><path d="M334.42,158.7a3.52,3.52,0,0,1,.79-.53,4.27,4.27,0,0,1,.94-.29,2.77,2.77,0,0,1,1,.05,2.42,2.42,0,0,1,.94.49l.49.42L338,159a7.07,7.07,0,0,0-1.3.49,2.87,2.87,0,0,0-1.09.91,2.11,2.11,0,0,1,.81-1.33,3.87,3.87,0,0,1,1.41-.73l-.14.59a2.33,2.33,0,0,0-1.48-.48A7.51,7.51,0,0,0,334.42,158.7Z" style="fill:#263238"></path><path d="M337.07,160.46a5.89,5.89,0,0,0,1.12-1c.08-.1.34-.51.29-.58a2.75,2.75,0,0,0-.48-.56,1.79,1.79,0,0,1,.61.49,1,1,0,0,1-.24.79A3.09,3.09,0,0,1,337.07,160.46Z" style="fill:#263238"></path><path d="M360.6,149.61a6.84,6.84,0,0,1-6-3,17.87,17.87,0,0,1-9.19-1.61c.26.24,2.15,2,3.15,2.89-10.17,3.36-16.91-2.12-16.91-2.12a18.2,18.2,0,0,0-.8,8s-3.18-5.61-2.36-11a10.42,10.42,0,0,1,6.34-8.4,14.88,14.88,0,0,1,14.89-3.09C359.26,134.52,360.6,149.61,360.6,149.61Z" style="fill:#263238"></path><path d="M340.67,150.2a19.92,19.92,0,0,0,5.69-.87,0,0,0,0,0,0,0,16.47,16.47,0,0,1-9-.36,15.38,15.38,0,0,1-3.52-1.68,10.78,10.78,0,0,1-3.17-2.84c-.05-.09-.19,0-.13.09a12.81,12.81,0,0,0,2.73,3.23,11.5,11.5,0,0,0,3.73,1.92,13.63,13.63,0,0,0,3.7.54" style="fill:#263238"></path><path d="M357.79,149.15s1-6.31,3.71-6.17S365,151.15,363,153.3a2.84,2.84,0,0,1-4.09.28Z" style="fill:#eb9481"></path><path d="M361.68,145.29s.08,0,.05.06c-1.41,1.56-1.55,3.65-1.38,5.65a1.57,1.57,0,0,1,1.92-1.41c.06,0,.06.11,0,.12a1.75,1.75,0,0,0-1.46,1.39,8.26,8.26,0,0,0-.15,1.8c0,.19-.33.25-.36,0v-.05C359.16,150.67,359.39,146.68,361.68,145.29Z" style="fill:#263238"></path></g><g id="freepik--Telescope--inject-28"><rect x="223.1" y="130.75" width="4.45" height="29.93" transform="translate(78.52 -78.91) rotate(23.94)" style="fill:#37474f"></rect><rect x="162.22" y="99.66" width="9.1" height="40.1" transform="translate(62.93 -57.38) rotate(23.94)" style="fill:#37474f"></rect><rect x="285.51" y="161.81" width="4.45" height="23.24" transform="translate(95.14 -101.85) rotate(23.94)" style="fill:#37474f"></rect><polygon points="333.19 189.13 313.12 192.94 319 179.68 322.6 181.28 333.19 189.13" style="fill:#37474f"></polygon><rect x="168.46" y="115.75" width="57.3" height="34.88" transform="translate(71.01 -68.53) rotate(23.94)" style="fill:#455a64"></rect><rect x="224.62" y="146.11" width="63.84" height="26.91" transform="translate(86.83 -90.38) rotate(23.94)" style="fill:#455a64"></rect><rect x="288.53" y="170.14" width="28.89" height="20.1" transform="translate(99.2 -107.45) rotate(23.94)" style="fill:#455a64"></rect><rect x="323.26" y="171.68" width="19.29" height="10.7" transform="translate(-6.45 341.37) rotate(-53.84)" style="fill:#455a64"></rect><rect x="337.11" y="162.35" width="7.3" height="7.9" transform="translate(5.44 343.3) rotate(-53.84)" style="fill:#37474f"></rect><rect x="261.35" y="140.44" width="37.29" height="7.21" transform="translate(82.55 -101.24) rotate(23.94)" style="fill:#455a64"></rect><polygon points="288.32 155.8 265.29 145.57 263.21 147.81 287.15 158.44 288.32 155.8" style="fill:#37474f"></polygon><rect x="274.51" y="147.76" width="4.36" height="2.74" transform="translate(84.34 -99.46) rotate(23.94)" style="fill:#455a64"></rect><rect x="275.84" y="139.04" width="6.57" height="9.24" transform="translate(475.92 388.23) rotate(-156.06)" style="fill:#37474f"></rect><rect x="253.39" y="129.83" width="9.99" height="9.24" transform="translate(439.98 362.2) rotate(-156.06)" style="fill:#37474f"></rect><rect x="296.91" y="150.24" width="3.02" height="3.97" transform="translate(509.37 412.46) rotate(-156.06)" style="fill:#37474f"></rect><polygon points="243.77 185.35 262.59 193.7 271.87 181.05 246.94 169.97 243.77 185.35" style="fill:#37474f"></polygon><polygon points="260.76 190.95 245.17 190.95 240.28 214.41 265.64 214.41 260.76 190.95" style="fill:#37474f"></polygon><rect x="250.91" y="196.44" width="34.25" height="4.54" transform="translate(130 -105.06) rotate(29.01)" style="fill:#37474f"></rect><polygon points="298.73 220.27 277.27 207.26 280.18 202.02 302.58 213.34 298.73 220.27" style="fill:#263238"></polygon><path d="M262.68,194.29a10.63,10.63,0,1,1-5.4-14A10.63,10.63,0,0,1,262.68,194.29Z" style="fill:#263238"></path><path d="M257.24,191.88a4.68,4.68,0,1,1-2.38-6.18A4.68,4.68,0,0,1,257.24,191.88Z" style="fill:#455a64"></path><path d="M253.88,190.39a1,1,0,1,1-.51-1.33A1,1,0,0,1,253.88,190.39Z" style="fill:#37474f"></path><rect x="236.34" y="220.59" width="33.22" height="8.05" style="fill:#263238"></rect><rect x="238.55" y="214.43" width="28.8" height="6.16" style="fill:#263238"></rect><polygon points="254.7 473.46 251.2 473.46 249.26 228.64 256.64 228.64 254.7 473.46" style="fill:#37474f"></polygon><polygon points="176.46 473.46 172.96 473.46 237.36 228.64 244.73 228.64 176.46 473.46" style="fill:#37474f"></polygon><polygon points="329.44 473.46 332.94 473.46 268.54 228.64 261.17 228.64 329.44 473.46" style="fill:#37474f"></polygon><rect x="198.4" y="356.2" width="109.1" height="5.53" style="fill:#263238"></rect></g><g id="freepik--character--inject-28"><path d="M415,116.83a23.57,23.57,0,0,1-37.63,18.93l-11.55,3L370.64,128a23.3,23.3,0,0,1-2.79-11.12,23.58,23.58,0,1,1,47.16,0Z" style="fill:#fff"></path><path d="M415,116.83c.17,13.64-12.07,24.9-25.63,23.73a23.85,23.85,0,0,1-12.21-4.51l.3.06-11.53,3-.88.23.37-.84,4.77-10.77,0,.42c-5.44-9.66-2.8-22.73,5.79-29.66,15.46-12.78,39-1.74,39,18.31Zm0,0c.07-15.07-14.67-26.57-29.24-22.58-14.4,3.57-21.82,20.47-14.71,33.48l.12.21-.1.21-4.85,10.74-.51-.6,11.57-2.87.17,0a23,23,0,0,0,15.18,4.76c12.24-.26,22.48-11.12,22.37-23.31Z" style="fill:#263238"></path><polygon points="394.58 102.61 389.06 102.61 389.44 122.94 394.21 122.94 394.58 102.61" style="fill:#FF0055"></polygon><rect x="389.44" y="125.49" width="4.77" height="4.77" transform="translate(783.64 255.75) rotate(180)" style="fill:#FF0055"></rect></g></svg>